<?xml version="1.0" encoding="utf-8"?>
<!-- Generator: Adobe Illustrator 25.0.0, SVG Export Plug-In . SVG Version: 6.00 Build 0)  -->
<svg version="1.1" id="Calque_1" xmlns="http://www.w3.org/2000/svg" xmlns:xlink="http://www.w3.org/1999/xlink" x="0px" y="0px"
	 viewBox="0 0 512 512" style="enable-background:new 0 0 512 512;" xml:space="preserve">
<style type="text/css">
	.st0{fill:#04809F;}
</style>
<path class="st0" d="M256,512c-68.4,0-132.7-26.6-181-75C26.6,388.7,0,324.4,0,256S26.6,123.3,75,75S187.6,0,256,0
	s132.7,26.6,181,75s75,112.6,75,181s-26.6,132.7-75,181C388.7,485.4,324.4,512,256,512z M256,20C125.9,20,20,125.9,20,256
	c0,130.1,105.9,236,236,236s236-105.9,236-236C492,125.9,386.1,20,256,20z"/>
<path class="st0" d="M256.2,443.9c-31.1,0-62.1-7.7-89.4-22.4c-4.9-2.6-6.7-8.7-4.1-13.5c2.6-4.9,8.7-6.7,13.5-4.1
	c64.8,34.9,146.4,22.9,198.5-29.2C406.5,343,424,300.8,424,255.9c0-44.9-17.5-87.1-49.2-118.8c-65.5-65.5-172.1-65.5-237.6,0
	C85.1,189.2,73.1,270.8,108,335.6c2.6,4.9,0.8,10.9-4.1,13.5c-4.9,2.6-10.9,0.8-13.5-4.1c-18.8-34.9-26.1-75.8-20.6-115.2
	c5.7-40.8,24.1-77.7,53.3-106.9c73.3-73.3,192.6-73.3,265.9,0c35.5,35.5,55.1,82.7,55.1,132.9c0,50.2-19.6,97.4-55.1,132.9
	c-29.2,29.2-66.1,47.6-106.9,53.3C273.5,443.3,264.8,443.9,256.2,443.9z"/>
<path class="st0" d="M130,391.9c-2.5,0-5.1-1-7-2.9c-3.9-3.9-3.9-10.2-0.1-14.1l0.1-0.1c3.9-3.9,10.2-3.9,14.1-0.1
	c3.9,3.9,3.9,10.2,0.1,14.1l-0.1,0.1C135.1,390.9,132.5,391.9,130,391.9z"/>
<path class="st0" d="M297.1,328.8c-9.8,5.8-20.3,8.8-31.3,8.8c-28.2,0-52.6-19.9-63.4-48.3h51.9c5.5,0,10-4.5,10-10s-4.5-10-10-10
	h-57c-0.6-4.3-0.9-8.8-0.9-13.3c0-3.5,0.2-6.9,0.6-10.3h72.6c5.5,0,10-4.5,10-10s-4.5-10-10-10h-68.1c10.3-30,35.3-51.3,64.5-51.3
	c11,0,21.5,3,31.3,8.8c4.7,2.8,10.9,1.3,13.7-3.5s1.3-10.9-3.5-13.7c-12.7-7.6-27.1-11.6-41.5-11.6c-40,0-74,30-85.4,71.3h-19
	c-5.5,0-10,4.5-10,10s4.5,10,10,10h15.3c-0.3,3.4-0.5,6.8-0.5,10.3c0,4.5,0.3,8.9,0.8,13.3h-15.6c-5.5,0-10,4.5-10,10s4.5,10,10,10
	h19.8c12.2,39.7,45.5,68.3,84.6,68.3c14.4,0,28.8-4,41.5-11.6c4.7-2.8,6.3-9,3.5-13.7S301.8,326,297.1,328.8z"/>
</svg>
