<?xml version="1.0" encoding="utf-8"?>
<!-- Generator: Adobe Illustrator 25.0.0, SVG Export Plug-In . SVG Version: 6.00 Build 0)  -->
<svg version="1.1" id="Capa_1" xmlns="http://www.w3.org/2000/svg" xmlns:xlink="http://www.w3.org/1999/xlink" x="0px" y="0px"
	 viewBox="0 0 512 512" style="enable-background:new 0 0 512 512;" xml:space="preserve">
<style type="text/css">
	.st0{fill:#04809F;}
</style>
<path class="st0" d="M478.5,179.6c9.3-14.9,16.8-32.6,17.6-51.9c0.7-15.7-5.1-31.2-15.9-42.5C469.5,74,455.3,67.7,440,67.6
	c-0.2,0-0.4,0-0.6,0c-13.5,0-26.2,4.7-36.4,13.2c-41.9-32.3-93.9-50.1-147-50.1c-34.6,0-69.1,7.6-100.4,21.9
	c-1.2-13-6.7-25.5-15.7-35C129.3,6.4,115,0.2,99.7,0c-0.2,0-0.4,0-0.6,0C84,0,69.9,5.8,59.2,16.4C48.3,27.2,42.3,41.5,42.3,56.8
	C42.3,82,54.2,105,67,122.4c-15,19.1-27,40.1-35.7,62.7c-1.5,3.9,0.4,8.2,4.3,9.7c0.9,0.3,1.8,0.5,2.7,0.5c3,0,5.8-1.8,7-4.8
	c7.7-19.9,18.1-38.6,31-55.7c-0.2,1.8-0.3,3.5-0.3,5.3v36.4c0,7.2,3.9,13.7,10.3,17c2.8,1.5,5.9,2.2,8.9,2.2c3.8,0,7.7-1.2,10.9-3.4
	l26.8-18.6c7.5-5.2,16.3-8,25.5-8H193c13.4,0,26-5.2,35.5-14.7l34.1-34.1c11.5-11.5,12.1-30,1.4-42.2l-16.6-19
	c-2.3-2.7-3.3-6.3-2.7-9.7c3.8-0.2,7.5-0.3,11.3-0.3c49.4,0,97.7,16.4,136.8,46.2c-6.6,9.4-10.2,20.7-10.2,32.5
	c0,10.4,2,20.4,5.3,29.7c-2.2,16.3,0.2,32.8,6.9,47.8l14.6,32.4c7.8,17.4,25.2,28.6,44.2,28.6c9.7,0,19-2.9,27-8.2l0.5-0.3
	c0.4,5.6,0.6,11.3,0.6,17C481.7,395.8,380.4,497,256,497S30.3,395.8,30.3,271.4c0-17.5,2-34.9,5.9-51.7c0.9-4-1.6-8.1-5.6-9
	c-4-0.9-8.1,1.6-9,5.6c-4.2,18-6.3,36.5-6.3,55.1c0,64.3,25,124.7,70.5,170.2C131.3,487,191.7,512,256,512s124.7-25,170.2-70.5
	c45.5-45.5,70.5-105.9,70.5-170.2C496.6,239.5,490.5,208.7,478.5,179.6L478.5,179.6z M69.7,27.1C77.6,19.3,88,15,99.1,15
	c0.2,0,0.3,0,0.5,0c11.2,0.1,21.7,4.7,29.5,12.9c8,8.4,12.3,19.9,11.8,31.6c-1.4,33.4-28.2,63.4-39.7,74.8c-1.1,1.1-3,1.1-4.1,0
	c-12-11.8-39.8-43.1-39.8-77.5C57.3,45.5,61.7,35,69.7,27.1z M236.1,65.5l16.6,19c5.5,6.3,5.2,15.9-0.7,21.8l-34.1,34.1
	c-6.6,6.6-15.5,10.3-24.9,10.3h-34.5c-12.2,0-24,3.7-34,10.6L97.6,180c-1.9,1.3-3.7,0.6-4.4,0.3c-0.7-0.4-2.3-1.4-2.3-3.7v-28.4
	c2.5,1.3,5.3,1.9,8.1,1.9c4.6,0,9.1-1.7,12.6-5.2c14.4-14.3,38-42.2,43.2-75.3c23.3-11.7,48.7-19.3,74.7-22.4
	C229.4,53.8,231.6,60.4,236.1,65.5L236.1,65.5z M439.4,82.5c0.2,0,0.3,0,0.5,0c11.2,0.1,21.7,4.7,29.5,12.9
	c8,8.4,12.3,19.9,11.8,31.6c-1.4,33.4-28.2,63.4-39.7,74.8c-1.1,1.1-3,1.1-4.1,0c-12-11.8-39.7-43.1-39.7-77.5
	c0-11.2,4.4-21.8,12.4-29.7C417.9,86.8,428.3,82.5,439.4,82.5z M472.2,242.3c-5.5,3.7-12,5.7-18.7,5.7c-13.2,0-25.1-7.8-30.5-19.8
	l-14.6-32.4c-1.3-2.8-2.4-5.8-3.3-8.7c7.4,10.5,15.3,19.2,21.6,25.4c3.5,3.4,8,5.2,12.6,5.2c4.6,0,9.1-1.7,12.6-5.2
	c4.7-4.7,10.5-10.9,16.2-18.2c5.1,14.1,8.8,28.5,11,43.3L472.2,242.3z"/>
<path class="st0" d="M439.4,157.8c17.4,0,31.6-14.2,31.6-31.6s-14.2-31.6-31.6-31.6c-17.4,0-31.6,14.2-31.6,31.6
	S421.9,157.8,439.4,157.8z M439.4,109.6c9.2,0,16.6,7.5,16.6,16.6s-7.5,16.6-16.6,16.6s-16.6-7.5-16.6-16.6S430.2,109.6,439.4,109.6
	z"/>
<path class="st0" d="M325.2,163.8c-10.6-11.2-24.9-17.4-40.2-17.6c-0.2,0-0.4,0-0.6,0c-15,0-29.2,5.8-39.9,16.4
	c-8.1,8-13.5,18-15.7,28.9c-17.2-0.7-33.9,7.2-44,21.6l-25.2,35.5c-9.8,13.9-11,31.9-3.5,46.8c-3.2,7.2-4.9,15-4.9,23.1
	c0,33,20.2,62,36.4,80l-1.6,44.3c-0.4,10.6,4.5,20.5,13.1,26.6c5.4,3.9,11.8,5.8,18.2,5.8c6.2,0,12.5-1.9,17.9-5.6l68.9-47.9
	c10.7-7.5,20-16.6,27.6-27.3l20.8-29.4c2.4-3.4,1.6-8.1-1.8-10.4c-3.4-2.4-8.1-1.6-10.4,1.8l-20.8,29.4
	c-6.5,9.2-14.6,17.2-23.9,23.7l-68.9,47.9c-5.6,3.9-13.2,3.9-18.8-0.1c-4.5-3.2-7-8.4-6.8-13.9l1.2-32.5c1.9,0.6,3.8,1,5.8,1
	c4.6,0,9.1-1.7,12.6-5.2c15.8-15.7,42.6-47.5,44.1-84.8c0.7-15.7-5.1-31.2-15.9-42.5c-10.6-11.2-24.9-17.4-40.2-17.6
	c-15.2-0.2-29.7,5.7-40.5,16.4c-0.5,0.5-1,1-1.5,1.5c-1.2-7.7,0.5-15.8,5.2-22.4l25.2-35.5c7.1-10,18.7-15.6,30.7-15.3
	c1.6,37.1,28.1,68.8,44.1,84.6c3.5,3.4,8,5.2,12.6,5.2c4.6,0,9.1-1.7,12.6-5.2c6.5-6.5,14.9-15.7,22.6-26.9l38.9,27.5
	c4.9,3.5,8.2,8.6,9.2,14.6c1,5.9-0.3,11.9-3.8,16.8l-5.5,7.7c-2.4,3.4-1.6,8,1.8,10.4c1.3,0.9,2.8,1.4,4.3,1.4
	c2.3,0,4.7-1.1,6.1-3.2l5.5-7.7c5.8-8.2,8-18.1,6.4-28c-1.7-9.9-7.1-18.5-15.3-24.3l-39.6-28c7.4-13.4,12.9-28.7,13.6-45.1
	C341.7,190.6,335.9,175.1,325.2,163.8L325.2,163.8z M208,276.7c0.2,0,0.3,0,0.5,0c11.2,0.1,21.7,4.7,29.5,12.9
	c8,8.4,12.3,19.9,11.8,31.6c-1.4,33.4-28.2,63.4-39.7,74.8c-1.1,1.1-3,1.1-4.1,0c-12-11.8-39.8-43.1-39.8-77.5
	c0-11.2,4.4-21.8,12.4-29.7C186.5,281,196.9,276.7,208,276.7L208,276.7z M286.4,280.4c-1.1,1.1-3,1.1-4.1,0
	c-12-11.8-39.7-43.1-39.7-77.5c0-11.2,4.4-21.8,12.4-29.7c7.9-7.8,18.3-12.1,29.4-12.1c0.2,0,0.3,0,0.5,0
	c11.2,0.1,21.7,4.7,29.5,12.9c8,8.4,12.3,19.9,11.8,31.6C324.7,239,297.9,269.1,286.4,280.4z"/>
<path class="st0" d="M308.5,197.3c-4.1,0-7.5,3.4-7.5,7.5c0,9.2-7.5,16.6-16.6,16.6s-16.6-7.5-16.6-16.6s7.5-16.6,16.6-16.6
	c1.1,0,2.2,0.1,3.3,0.3c4.1,0.8,8-1.8,8.8-5.9c0.8-4.1-1.8-8-5.9-8.8c-2-0.4-4.1-0.6-6.2-0.6c-17.4,0-31.6,14.2-31.6,31.6
	s14.2,31.6,31.6,31.6c17.4,0,31.6-14.2,31.6-31.6C316,200.6,312.6,197.3,308.5,197.3z"/>
<path class="st0" d="M208,352c17.4,0,31.6-14.2,31.6-31.6s-14.2-31.6-31.6-31.6s-31.6,14.2-31.6,31.6S190.5,352,208,352z M208,303.8
	c9.2,0,16.6,7.5,16.6,16.6S217.1,337,208,337s-16.6-7.5-16.6-16.6C191.3,311.2,198.8,303.8,208,303.8z"/>
<path class="st0" d="M130.7,58.6c0-17.4-14.2-31.6-31.6-31.6S67.5,41.2,67.5,58.6s14.2,31.6,31.6,31.6S130.7,76,130.7,58.6z
	 M82.5,58.6c0-9.2,7.5-16.6,16.6-16.6s16.6,7.5,16.6,16.6s-7.5,16.6-16.6,16.6S82.5,67.8,82.5,58.6z"/>
</svg>
