<?xml version="1.0" encoding="utf-8"?>
<!-- Generator: Adobe Illustrator 25.0.0, SVG Export Plug-In . SVG Version: 6.00 Build 0)  -->
<svg version="1.1" id="Capa_1" xmlns="http://www.w3.org/2000/svg" xmlns:xlink="http://www.w3.org/1999/xlink" x="0px" y="0px"
	 viewBox="0 0 512 512" style="enable-background:new 0 0 512 512;" xml:space="preserve">
<style type="text/css">
	.st0{fill:#04809F;}
</style>
<path class="st0" d="M497.1,133.2h-16.9C435.2,51.2,349.7,0.4,256,0.4c-93.7,0-179.2,50.8-224.2,132.8H14.9
	c-8.2,0-14.9,6.7-14.9,14.9v215.8c0,8.2,6.7,14.9,14.9,14.9h16.9c45,82,130.5,132.8,224.2,132.8c93.7,0,179.2-50.8,224.2-132.8h16.9
	c8.2,0,14.9-6.7,14.9-14.9V148.1C512,139.9,505.3,133.2,497.1,133.2L497.1,133.2z M15,148.2h310.2l-15,15H73.8
	c-4.1,0-7.5,3.4-7.5,7.5c0,15.9-12.9,28.8-28.8,28.8c-4.1,0-7.5,3.4-7.5,7.5v98c0,4.1,3.4,7.5,7.5,7.5c15.9,0,28.8,12.9,28.8,28.8
	c0,4.1,3.4,7.5,7.5,7.5h50.8l-15,15H15L15,148.2z M340.2,133.2H97.7c37.7-48.5,95.5-77.3,157-77.7c43.9-0.3,85.8,13.4,121,39.7
	c0.5,0.4,0.6,0.8,0.6,1.1c0,0.3,0,0.8-0.5,1.3L340.2,133.2z M139.6,333.8H80.6c-3.1-18.1-17.5-32.5-35.6-35.6v-84.3
	c18.1-3.1,32.5-17.5,35.6-35.6h124.8c-25.4,16.6-42.3,45.2-42.3,77.8c0,15.2,3.7,30.1,10.8,43.4L139.6,333.8z M497,363.8h-21.4
	c0,0,0,0,0,0H249.5c-4.1,0-7.5,3.4-7.5,7.5c0,4.1,3.4,7.5,7.5,7.5h164.8C403.1,393.2,390,406,375.2,417c-3.3,2.5-4,7.2-1.5,10.5
	c1.5,2,3.7,3,6,3c1.6,0,3.1-0.5,4.5-1.5c18.9-14.1,35.3-31,48.7-50.2h30c-43.3,73-121.5,117.8-206.9,117.8
	c-85.4,0-163.6-44.8-206.9-117.8H79c1.4,2,2.7,3.9,4.2,5.8c2.9,3.9,7.3,6.3,12.1,6.6c0.4,0,0.8,0,1.2,0c4.4,0,8.6-1.7,11.8-4.9
	l112.5-112.5c2.9-2.9,2.9-7.7,0-10.6c-2.9-2.9-7.7-2.9-10.6,0l-24.9,24.9c-4.6-10.1-7-21-7-32.2c0-42.9,34.9-77.8,77.8-77.8
	c11.2,0,22.1,2.4,32.2,7l-55.4,55.4c-2.9,2.9-2.9,7.7,0,10.6c1.5,1.5,3.4,2.2,5.3,2.2c1.9,0,3.8-0.7,5.3-2.2l143-143
	c3.4-3.4,5.2-8.2,4.8-13c-0.3-4.8-2.8-9.2-6.6-12.1C347.2,55.2,302.7,40.4,256,40.4c-0.5,0-1,0-1.4,0
	c-69.9,0.5-135.3,35.1-175.5,92.7h-30C92.4,60.3,170.6,15.4,256,15.4c85.4,0,163.6,44.8,206.9,117.8H433c-1.4-2-2.7-3.9-4.2-5.8
	c-2.9-3.9-7.3-6.3-12.1-6.6c-4.8-0.3-9.6,1.4-13,4.8L125.6,403.8c-3.4,3.4-5.2,8.2-4.8,13c0.3,4.8,2.8,9.2,6.6,12.1
	c37.5,27.9,81.9,42.7,128.6,42.7c0.5,0,1,0,1.4,0c34.2-0.2,68.4-8.8,98.6-24.8c3.7-1.9,5.1-6.5,3.1-10.1c-1.9-3.7-6.5-5.1-10.1-3.1
	c-28.2,14.9-59.9,22.8-91.7,23c-43.9,0.3-85.8-13.4-121-39.7c-0.5-0.4-0.6-0.8-0.6-1.1c0-0.3,0-0.8,0.5-1.3l35.6-35.6h45.7
	c4.1,0,7.5-3.4,7.5-7.5c0-4.1-3.4-7.5-7.5-7.5h-30.7l15-15h236.4c4.1,0,7.5-3.4,7.5-7.5c0-15.9,12.9-28.8,28.8-28.8
	c4.1,0,7.5-3.4,7.5-7.5v-98c0-4.1-3.4-7.5-7.5-7.5c-15.9,0-28.8-12.9-28.8-28.8c0-4.1-3.4-7.5-7.5-7.5h-50.8l15-15H497V363.8z
	 M223.8,326.8l103-103c4.6,10.1,7,21,7,32.2c0,42.9-34.9,77.8-77.8,77.8C244.8,333.8,233.9,331.4,223.8,326.8L223.8,326.8z
	 M348.8,256c0-15.2-3.7-30.1-10.8-43.4l34.4-34.4h58.9c3.1,18.1,17.5,32.5,35.6,35.6v84.3c-18.1,3.1-32.5,17.5-35.6,35.6H306.5
	C332,317.2,348.8,288.5,348.8,256L348.8,256z"/>
</svg>
