<?xml version="1.0" encoding="utf-8"?>
<!-- Generator: Adobe Illustrator 25.0.0, SVG Export Plug-In . SVG Version: 6.00 Build 0)  -->
<svg version="1.1" id="Calque_1" xmlns="http://www.w3.org/2000/svg" xmlns:xlink="http://www.w3.org/1999/xlink" x="0px" y="0px"
	 viewBox="0 0 496 496" style="enable-background:new 0 0 496 496;" xml:space="preserve">
<style type="text/css">
	.st0{fill:#04809F;}
</style>
<path class="st0" d="M476.3,99.7c-2.6-9.9-6.5-19.3-11.7-28.2l9.3-18.6l-30.8-30.8l-18.6,9.3c-8.9-5.2-18.3-9.2-28.2-11.7L389.8,0
	h-43.5l-6.6,19.7c-9.9,2.6-19.3,6.5-28.2,11.7l-18.6-9.3l-30.8,30.8l9.3,18.6c-5.2,8.9-9.1,18.3-11.7,28.2l-19.7,6.6V128H40
	c-22.1,0-40,17.9-40,40v240c0,22.1,17.9,40,40,40h104v32h-32v16h272v-16h-32v-32h104c22.1,0,40-17.9,40-40V106.2L476.3,99.7z
	 M336,480H160v-32h176V480z M456,432H40c-13.2,0-24-10.8-24-24v-8h464v8C480,421.2,469.2,432,456,432z M480,384H16V168
	c0-13.2,10.8-24,24-24h200v5.8l19.7,6.6c2.6,9.9,6.5,19.3,11.7,28.2l-9.3,18.6l30.8,30.8l18.6-9.3c8.9,5.2,18.3,9.2,28.2,11.7
	l6.6,19.7h43.5l6.6-19.7c9.9-2.6,19.3-6.5,28.2-11.7l18.6,9.3l30.8-30.8l-9.3-18.6c5.2-8.9,9.1-18.3,11.7-28.2l3.7-1.2V384z
	 M480,138.2l-17.3,5.8l-1,4.4c-2.4,11.1-6.8,21.7-13,31.4l-2.5,3.8l8.2,16.3L440,214.4l-16.3-8.2l-3.8,2.5
	c-9.7,6.2-20.2,10.6-31.4,13l-4.4,1l-5.8,17.3h-20.5l-5.8-17.3l-4.4-1c-11.1-2.4-21.7-6.8-31.4-13l-3.8-2.5l-16.3,8.2L281.6,200
	l8.2-16.3l-2.5-3.8c-6.2-9.7-10.6-20.2-13-31.4l-1-4.4l-17.3-5.8v-20.5l17.3-5.8l1-4.4c2.4-11.1,6.8-21.7,13-31.4l2.5-3.8L281.6,56
	L296,41.6l16.3,8.2l3.8-2.5c9.7-6.2,20.2-10.6,31.4-13l4.4-1l5.8-17.3h20.5l5.8,17.3l4.4,1c11.1,2.4,21.7,6.8,31.4,13l3.8,2.5
	l16.3-8.2L454.4,56l-8.2,16.3l2.5,3.8c6.2,9.7,10.6,20.2,13,31.4l1,4.4l17.3,5.8V138.2z"/>
<path class="st0" d="M368,48c-44.1,0-80,35.9-80,80s35.9,80,80,80s80-35.9,80-80S412.1,48,368,48z M368,192c-35.3,0-64-28.7-64-64
	s28.7-64,64-64s64,28.7,64,64S403.3,192,368,192z"/>
<path class="st0" d="M368,96c-17.6,0-32,14.4-32,32s14.4,32,32,32s32-14.4,32-32S385.6,96,368,96z M368,144c-8.8,0-16-7.2-16-16
	s7.2-16,16-16s16,7.2,16,16S376.8,144,368,144z"/>
<path class="st0" d="M48,192v8c0,8.8-7.2,16-16,16v16c8.8,0,16,7.2,16,16v8c0,13.2,10.8,24,24,24h8v-16h-8c-4.4,0-8-3.6-8-8v-8
	c0-9.5-4.2-18.1-10.9-24c6.7-5.9,10.9-14.5,10.9-24v-8c0-4.4,3.6-8,8-8h8v-16h-8C58.8,168,48,178.8,48,192z"/>
<path class="st0" d="M296,272v-8c0-13.2-10.8-24-24-24h-8v16h8c4.4,0,8,3.6,8,8v8c0,9.5,4.2,18.1,10.9,24
	c-6.7,5.9-10.9,14.5-10.9,24v8c0,4.4-3.6,8-8,8h-8v16h8c13.2,0,24-10.8,24-24v-8c0-8.8,7.2-16,16-16v-16
	C303.2,288,296,280.8,296,272z"/>
<path class="st0" d="M96,176h152v16H96V176z"/>
<path class="st0" d="M128,208h120v16H128V208z"/>
<path class="st0" d="M96,208h16v16H96V208z"/>
<path class="st0" d="M96,240h152v16H96V240z"/>
<path class="st0" d="M96,272h152v16H96V272z"/>
<path class="st0" d="M232,304h16v16h-16V304z"/>
<path class="st0" d="M96,304h120v16H96V304z"/>
<path class="st0" d="M96,336h152v16H96V336z"/>
</svg>
